<svg xmlns="http://www.w3.org/2000/svg" xmlns:xlink="http://www.w3.org/1999/xlink" id="Layer_1" x="0px" y="0px" viewBox="0 0 546.24 500" style="enable-background:new 0 0 546.24 500;" xml:space="preserve"> <style type="text/css"> .st0{fill:#231F20;} .st1{fill:#2C2C7A;} .st2{fill:#2C8D43;} .st3{fill:#F59C24;} .st4{fill:#FFFFFF;} .st5{fill:#E2871A;} .st6{fill:#E27B14;} .st7{fill:#1E662A;} .st8{fill:#C60B24;} .st9{fill:#E9452D;} .st10{fill:#F9B62D;} .st11{fill:#606060;} .st12{fill:#2963C1;} .st13{fill:#22226D;} .st14{fill:#E5891A;} .st15{fill:#D6760D;} .st16{fill:#D8D8D8;} .st17{fill:#BC640C;} .st18{fill:#EA1D25;} .st19{fill:#7A7A7A;} .st20{fill:#1B7CCC;} .st21{fill:#176826;} .st22{fill:#DD7D14;} .st23{fill:#0472BC;} .st24{fill:#DD6307;} .st25{clip-path:url(#SVGID_00000046308965395644343960000013706977675350253479_);fill:#2C76E3;} .st26{fill-rule:evenodd;clip-rule:evenodd;fill:#FAFAFA;} .st27{fill:#2C76E3;} .st28{clip-path:url(#SVGID_00000022561724443345329920000012888132902875269248_);fill:#2C76E3;} .st29{clip-path:url(#SVGID_00000054944496902034670750000016702515204129429182_);fill:#2C76E3;} </style> <g> <g> <defs> <circle id="SVGID_00000150094293868775619300000002070376678161616515_" cx="273.12" cy="250" r="245.01"></circle> </defs> <clipPath id="SVGID_00000121276251349909098610000018242722234853205433_"> <use xlink:href="#SVGID_00000150094293868775619300000002070376678161616515_" style="overflow:visible;"></use> </clipPath> <rect x="23.12" style="clip-path:url(#SVGID_00000121276251349909098610000018242722234853205433_);fill:#2C76E3;" width="500" height="500"></rect> </g> <g> <g> <path class="st4" d="M279.46,71.98c0,4.68-2.39,8.72-5.87,10.65v4.71v41.91v53.47c0,1.29-0.93,2.33-2.08,2.33h-5.11 c-1.15,0-2.08-1.04-2.08-2.33V82.63c-3.48-1.93-5.87-5.98-5.87-10.65c0-6.56,4.7-11.87,10.51-11.87S279.46,65.42,279.46,71.98z"></path> <g> <path class="st4" d="M347.64,125.7c-0.57-1.28-0.57-2.79,0-4.07l7.92-17.91c1.31-2.95-0.59-6.43-3.52-6.43h-23.59v38.46 c0,3.03-2.18,5.49-4.86,5.49h-16.92v5.06c0,2.06,1.48,3.73,3.3,3.73h42.07c2.92,0,4.82-3.48,3.52-6.43L347.64,125.7z"></path> <path class="st4" d="M324.96,90.03v41.76c0,3.03-2.18,5.49-4.86,5.49h-46.87V84.54h46.87C322.78,84.54,324.96,87,324.96,90.03z"></path> </g> </g> <path class="st4" d="M206.81,346.14c-2.79-3.76-4.75-9.66-4.59-16.45c0.26-10.86,10.26-18.71,13.31-20.85 c8.18-5.73,18.59-9.03,27.79-11.94c1.09-0.35,2.16-0.69,3.22-1.03c9.5-3.05,18.76-6.42,27.35-9.6c1.31-0.49,2.67-0.95,4.1-1.45 c8.41-2.9,17.95-6.18,21.66-14.44c2.09-4.63,0.76-10.5-1.19-14.46c-1.59-3.23-4.31-6.01-8.57-8.74c-3.97-2.54-8.3-4.49-12.49-6.39 c-4.21-1.9-8.57-3.87-12.63-6.44c-2.6-1.65-7.36-5.16-10.1-10.15c-1.15-1.94-1.91-4.04-2.24-6.2c-0.53-3.54,0.6-6.7,3.48-9.65 c1.54-1.78,3.42-3.2,5.24-4.58c1.21-0.91,2.36-1.78,3.35-2.71c1.34-1.25,2.66-3.23,3.44-5.19c0.73-1.83-0.44-3.9-2.22-3.9l0,0 c-2.35,0-4.58,1.23-6.01,3.34l-70.55,103.39l-53.27,78.25l0,0c-5.57,8.32-3.96,20.06,3.54,26.16 c11.49,9.34,26.99,18.04,36.31,22.5c29.56,14.13,60.96,21.3,93.32,21.3c32.36,0,63.76-7.16,93.32-21.3 c0.68-0.33,1.55-0.76,2.51-1.24c2.28-1.16,1.65-5.01-0.85-5.15C316.76,416.55,235.6,384.84,206.81,346.14z"></path> <path class="st4" d="M117.63,236.2c3.71-5.44,11.02-5.44,14.73,0l39.91,58.5c1.62,2.37,1.62,5.65,0,8.02l-45.24,66.3 c-5.96,8.74-17.32,9.67-24.35,2.01c-1.05-1.15-2.1-2.31-3.14-3.48c-11.42-12.91-21.56-26.92-30.37-41.91 c-3.5-5.96-3.19-13.76,0.67-19.43L117.63,236.2z"></path> <path class="st4" d="M420.51,236.2c-3.71-5.44-11.02-5.44-14.73,0l-39.91,58.5c-1.62,2.37-1.62,5.65,0,8.02l45.24,66.3l0.51,0.75 c5.69,8.34,16.5,9.2,23.23,1.92c1.26-1.36,2.51-2.74,3.74-4.14c12.12-13.71,22.81-28.65,31.98-44.7c2.47-4.33,2.3-9.91-0.48-13.99 L420.51,236.2z"></path> <path class="st4" d="M402.31,376.9l-53.35-78.19l-72.27-105.92c-0.35-0.51-0.88-0.81-1.45-0.81l0,0c-1.01,0-1.82,0.92-1.83,2.05 c0,0.68-0.04,1.31-0.12,1.87c-0.94,6.64-5.76,10.34-10.02,13.6c-0.76,0.58-1.47,1.13-2.17,1.69c-0.44,0.35-0.85,0.69-1.21,1.03 c-0.02,0.02-0.04,0.04-0.05,0.05c-0.57,0.62-0.99,1.23-1.31,1.84c-0.95,1.86-0.72,4.21,0.68,6.98c0.02,0.03,0.03,0.06,0.05,0.09 c0.85,1.27,1.98,2.58,3.37,3.89c5.28,4.99,12.15,7.71,18.8,10.35c2.13,0.84,4.34,1.71,6.43,2.64c7.81,3.47,16.43,7.94,19.78,17.18 c3.57,9.82,0.84,20.67-6.96,27.64c-7.01,6.26-15.68,9.25-24.07,12.13l-3.67,1.25c-8.15,2.79-16.59,5.67-24.72,8.96 c-8.34,3.38-19.76,8.01-27.12,16.44c-1.94,2.22-6.18,8.06-3.59,14.18c1.86,4.43,5.82,7.84,9.26,9.91 c42.86,25.82,77.86,43.93,148,48.85c7.14,0.5,20.92-0.23,20.92-0.23C403.37,393.86,407.23,383.61,402.31,376.9L402.31,376.9z"></path> </g> </g> </svg>