<svg xmlns="http://www.w3.org/2000/svg" xmlns:xlink="http://www.w3.org/1999/xlink" id="Layer_1" x="0px" y="0px" viewBox="0 0 546.24 500" style="enable-background:new 0 0 546.24 500;" xml:space="preserve"> <style type="text/css"> .st0{fill:#231F20;} .st1{fill:#2C2C7A;} .st2{fill:#2C8D43;} .st3{fill:#F59C24;} .st4{fill:#FFFFFF;} .st5{fill:#E2871A;} .st6{fill:#E27B14;} .st7{fill:#1E662A;} .st8{fill:#C60B24;} .st9{fill:#E9452D;} .st10{fill:#F9B62D;} .st11{fill:#606060;} .st12{fill:#2963C1;} .st13{fill:#22226D;} .st14{fill:#E5891A;} .st15{fill:#D6760D;} .st16{fill:#D8D8D8;} .st17{fill:#BC640C;} .st18{fill:#EA1D25;} .st19{fill:#7A7A7A;} .st20{fill:#1B7CCC;} .st21{fill:#176826;} .st22{fill:#DD7D14;} .st23{fill:#0472BC;} .st24{fill:#DD6307;} .st25{clip-path:url(#SVGID_00000160887870880138565790000009786092414247312051_);fill:#2C76E3;} .st26{fill-rule:evenodd;clip-rule:evenodd;fill:#FAFAFA;} .st27{fill:#2C76E3;} .st28{clip-path:url(#SVGID_00000080180098981613671480000000865552746224984467_);fill:#2C76E3;} .st29{clip-path:url(#SVGID_00000035502104063184274920000002852187248426722711_);fill:#2C76E3;} </style> <g> <g> <defs> <circle id="SVGID_00000086664133835700403540000008789042566152899258_" cx="273.12" cy="250" r="245.01"></circle> </defs> <clipPath id="SVGID_00000152244950775659454230000015180335676782983583_"> <use xlink:href="#SVGID_00000086664133835700403540000008789042566152899258_" style="overflow:visible;"></use> </clipPath> <rect x="23.12" style="clip-path:url(#SVGID_00000152244950775659454230000015180335676782983583_);fill:#2C76E3;" width="500" height="500"></rect> </g> <g> <path class="st4" d="M271.96,369.32c-2.2,0-4.32-0.8-5.98-2.25c-1.82-1.6-2.91-3.81-3.07-6.22c-0.14-2.16,0.49-4.3,1.79-6.03 l11.85-15.84c-18.1-8.15-36.93-5.73-43.28,6.1c-6.8,12.66,3.24,31.28,22.44,41.6c19.19,10.32,40.27,8.42,47.07-4.23 c4.89-9.09,1.08-21.25-8.56-31.21l-15.93,15.52C276.58,368.41,274.33,369.32,271.96,369.32z"></path> <path class="st4" d="M338.01,410.24c-14.6,27.17-60,31.25-101.21,9.1c-41.2-22.15-62.84-62.27-48.24-89.44 c14.6-27.17,60-31.25,101.21-9.1c0.09,0.05,0.17,0.1,0.26,0.15l9.67-12.93c-1.35-0.77-2.7-1.54-4.08-2.28 c-60.13-32.32-126.39-26.37-147.71,13.28s10.27,98.2,70.4,130.53c60.13,32.32,126.39,26.37,147.71-13.28 c17.83-33.17-1.38-79.56-43.33-112.77l-11.83,11.52C337.84,357.61,349.86,388.19,338.01,410.24z"></path> <path class="st4" d="M332.16,305.46L332.16,305.46l35.17-2.18l37.64-42.95l-42.37,2.79l-6.03-5.28l-2.79-42.37l-37.64,42.95 l2.31,35.07l-0.01,0.01l-13.28,17.76c4.33,2.66,8.48,5.46,12.45,8.37L332.16,305.46z"></path> <path class="st4" d="M289.55,346.97l16.31-15.88c-3.26-2.45-6.7-4.77-10.31-6.96l-13.3,17.79 C284.87,343.45,287.31,345.15,289.55,346.97z"></path> <path class="st4" d="M269.75,358.6c-0.41,0.55-0.58,1.2-0.54,1.83c0.05,0.71,0.36,1.39,0.93,1.89c0.52,0.46,1.17,0.68,1.81,0.68 c0.69,0,1.39-0.26,1.92-0.78l15.67-15.26c-2.23-1.82-4.67-3.52-7.31-5.06L269.75,358.6z"></path> <path class="st4" d="M317.62,319.63c-3.97-2.92-8.13-5.71-12.45-8.37l-9.62,12.86c3.62,2.19,7.06,4.52,10.31,6.96L317.62,319.63z"></path> </g> <g> <g> <path class="st4" d="M273.12,184.16c-24.65,0-51.2-9.61-76.79-27.8c-19.17-13.62-30.98-27.1-31.47-27.67l-2.96-3.4l2.96-3.4 c0.49-0.57,12.31-14.04,31.47-27.67c25.59-18.19,52.14-27.8,76.79-27.8c24.65,0,51.2,9.61,76.79,27.8 c19.17,13.62,30.98,27.1,31.47,27.67l2.96,3.4l-2.96,3.4c-0.49,0.57-12.31,14.04-31.47,27.67 C324.32,174.55,297.77,184.16,273.12,184.16z M175.86,125.3c4.62,4.75,14.04,13.81,26.68,22.77 c16.57,11.74,42.26,25.74,70.58,25.74s54.02-14,70.58-25.74c12.64-8.96,22.06-18.01,26.68-22.77 c-4.62-4.75-14.04-13.81-26.68-22.77c-16.57-11.74-42.26-25.74-70.58-25.74s-54.02,14-70.58,25.74 C189.9,111.48,180.48,120.54,175.86,125.3z"></path> </g> <g> <path class="st4" d="M273.12,181.66c-31.08,0-56.36-25.28-56.36-56.36c0-31.08,25.28-56.36,56.36-56.36s56.36,25.28,56.36,56.36 C329.48,156.37,304.2,181.66,273.12,181.66z M273.12,79.29c-25.37,0-46,20.64-46,46s20.64,46,46,46s46-20.64,46-46 S298.49,79.29,273.12,79.29z"></path> </g> <g> <path class="st4" d="M274.88,163.73l-0.46-10.35c2.53-0.11,5.03-0.57,7.42-1.34l3.21,9.85 C281.76,162.95,278.34,163.57,274.88,163.73z M261.27,161.91c-3.29-1.06-6.42-2.57-9.31-4.48l5.7-8.65 c2.11,1.39,4.4,2.49,6.8,3.27L261.27,161.91z M297.13,155.36l-6.47-8.09c1.98-1.58,3.73-3.42,5.22-5.46l8.38,6.09 C302.22,150.69,299.82,153.21,297.13,155.36z M242.03,147.96c-2.04-2.8-3.69-5.85-4.91-9.08l9.69-3.66 c0.89,2.36,2.1,4.59,3.59,6.63L242.03,147.96z M310.22,135.52l-9.99-2.75c0.67-2.42,1-4.94,1-7.48l0-0.13h10.36l0,0.13 C311.59,128.76,311.13,132.2,310.22,135.52z M245.01,125.36h-10.36v-0.06c0-3.44,0.46-6.86,1.36-10.16l9.99,2.73 c-0.66,2.4-0.99,4.9-0.99,7.43V125.36z M299.41,115.32c-0.89-2.36-2.11-4.58-3.6-6.62l8.36-6.12c2.05,2.79,3.71,5.84,4.93,9.07 L299.41,115.32z M250.33,108.83l-8.39-6.08c2.03-2.8,4.42-5.31,7.11-7.47l6.48,8.08C253.57,104.94,251.82,106.78,250.33,108.83z M288.53,101.78c-2.11-1.39-4.4-2.48-6.8-3.25l3.17-9.86c3.29,1.06,6.42,2.56,9.32,4.46L288.53,101.78z M264.36,98.57l-3.23-9.84 c3.28-1.07,6.69-1.7,10.16-1.86l0.49,10.35C269.24,97.33,266.75,97.79,264.36,98.57z"></path> </g> <ellipse transform="matrix(0.1602 -0.9871 0.9871 0.1602 105.6935 374.8183)" class="st4" cx="273.12" cy="125.3" rx="17.62" ry="17.62"></ellipse> <g> <g> <path class="st4" d="M278.06,208.4l-0.36-10.35c2.76-0.1,5.56-0.28,8.35-0.55l1.01,10.31 C284.06,208.09,281.03,208.29,278.06,208.4z M266.04,208.31c-2.96-0.15-5.97-0.39-8.96-0.73l1.15-10.3 c2.78,0.31,5.58,0.54,8.33,0.68L266.04,208.31z M298.93,206.17l-1.81-10.2c2.72-0.48,5.49-1.06,8.23-1.7l2.37,10.08 C304.8,205.04,301.84,205.65,298.93,206.17z M245.24,205.78c-2.89-0.55-5.84-1.2-8.75-1.93l2.5-10.05 c2.73,0.68,5.49,1.29,8.2,1.8L245.24,205.78z M319.23,201.21l-3.06-9.9c2.64-0.82,5.33-1.72,8-2.69l3.54,9.74 C324.88,199.39,322.03,200.34,319.23,201.21z M225.02,200.59c-2.79-0.9-5.62-1.89-8.43-2.94l3.64-9.7 c2.65,0.99,5.33,1.93,7.96,2.78L225.02,200.59z M338.75,193.97l-4.11-9.51c2.55-1.1,5.14-2.29,7.7-3.52l4.5,9.33 C344.16,191.56,341.44,192.81,338.75,193.97z M205.6,193.14c-2.67-1.18-5.37-2.45-8.05-3.77l4.59-9.29 c2.55,1.26,5.13,2.47,7.66,3.59L205.6,193.14z M357.38,184.84l-4.98-9.09c2.45-1.34,4.93-2.76,7.38-4.22l5.3,8.9 C362.52,181.96,359.93,183.44,357.38,184.84z M187.07,183.85c-2.54-1.42-5.12-2.92-7.66-4.46l5.37-8.86 c2.44,1.48,4.91,2.92,7.35,4.28L187.07,183.85z"></path> </g> </g> <g> <g> <path class="st4" d="M184.79,80.06l-5.37-8.86c2.54-1.54,5.12-3.04,7.66-4.46l5.05,9.04C189.7,77.14,187.23,78.58,184.79,80.06z M359.78,79.06c-2.44-1.45-4.92-2.87-7.38-4.22l4.98-9.09c2.56,1.4,5.15,2.88,7.7,4.4L359.78,79.06z M202.15,70.51l-4.59-9.29 c2.67-1.32,5.38-2.59,8.05-3.78l4.2,9.47C207.27,68.04,204.69,69.25,202.15,70.51z M342.35,69.66 c-2.56-1.23-5.14-2.42-7.69-3.52l4.11-9.51c2.68,1.16,5.4,2.4,8.09,3.7L342.35,69.66z M220.26,62.64l-3.64-9.7 c2.8-1.05,5.64-2.04,8.44-2.94l3.17,9.86C225.59,60.71,222.9,61.64,220.26,62.64z M324.19,61.97c-2.66-0.97-5.35-1.87-7.99-2.69 l3.07-9.9c2.8,0.87,5.64,1.82,8.46,2.85L324.19,61.97z M239.02,56.78l-2.5-10.05c2.92-0.72,5.87-1.37,8.76-1.92l1.94,10.18 C244.52,55.49,241.76,56.1,239.02,56.78z M305.37,56.33c-2.73-0.64-5.5-1.22-8.22-1.7l1.82-10.2c2.91,0.52,5.86,1.13,8.78,1.81 L305.37,56.33z M258.28,53.3L257.14,43c2.99-0.33,6.01-0.58,8.98-0.72l0.51,10.35C263.87,52.76,261.07,52.99,258.28,53.3z M286.1,53.1c-2.78-0.27-5.59-0.46-8.34-0.56l0.37-10.35c2.96,0.1,5.98,0.31,8.98,0.6L286.1,53.1z"></path> </g> </g> </g> </g> </svg>